<svg width="30" height="30" viewBox="0 0 30 30" fill="none" xmlns="http://www.w3.org/2000/svg">
<path fill-rule="evenodd" clip-rule="evenodd" d="M14.3362 8.71146C14.4233 8.62415 14.5268 8.55489 14.6406 8.50762C14.7545 8.46036 14.8766 8.43604 15 8.43604C15.1233 8.43604 15.2454 8.46036 15.3593 8.50762C15.4732 8.55489 15.5766 8.62415 15.6637 8.71146L26.9137 19.9615C27.0897 20.1375 27.1886 20.3763 27.1886 20.6252C27.1886 20.8742 27.0897 21.1129 26.9137 21.289C26.7377 21.465 26.4989 21.5639 26.25 21.5639C26.001 21.5639 25.7622 21.465 25.5862 21.289L15 10.7008L4.41371 21.289C4.23768 21.465 3.99892 21.5639 3.74996 21.5639C3.50101 21.5639 3.26225 21.465 3.08621 21.289C2.91018 21.1129 2.81128 20.8742 2.81128 20.6252C2.81128 20.3763 2.91018 20.1375 3.08621 19.9615L14.3362 8.71146V8.71146Z" fill="black"/>
</svg>
